<?xml version="1.0" encoding="utf-8"?>
<!-- Generator: Adobe Illustrator 18.1.1, SVG Export Plug-In . SVG Version: 6.00 Build 0)  -->
<!DOCTYPE svg PUBLIC "-//W3C//DTD SVG 1.1//EN" "http://www.w3.org/Graphics/SVG/1.1/DTD/svg11.dtd">
<svg version="1.1" id="Layer_1" xmlns="http://www.w3.org/2000/svg" xmlns:xlink="http://www.w3.org/1999/xlink" x="0px" y="0px"
	 viewBox="0 0 60 60" enable-background="new 0 0 60 60" xml:space="preserve">
<g>
	<rect x="24" y="49.6" fill="#DDB761" width="12.2" height="2.4"/>
	<rect x="22.8" y="46.4" fill="#DDB761" width="14.6" height="2.4"/>
	<rect x="22.8" y="46.4" fill="#DDB761" width="14.6" height="2.4"/>
	<rect x="24" y="49.6" fill="#DDB761" width="12.2" height="2.4"/>
	<path fill="#DDB761" d="M30,6.9c-8.7,0-15.8,7.1-15.8,15.8c0,4.9,2.3,9.5,6.1,12.5l3,10.4h13.4l3-10.4c3.8-3,6.1-7.6,6.1-12.5
		C45.8,14,38.7,6.9,30,6.9z M38,33.5l-0.3,0.2l-2.8,9.4h-9.8l-2.8-9.4L22,33.5c-3.4-2.5-5.4-6.5-5.4-10.8c0-7.4,6-13.4,13.4-13.4
		s13.4,6,13.4,13.4C43.4,27,41.4,31,38,33.5z"/>
	<g>
		<polygon fill="#FFFFFF" points="37.7,21.8 37.7,24.2 31.3,24.2 31.3,30.4 28.9,30.4 28.9,24.2 22.3,24.2 22.3,21.8 28.9,21.8 
			28.9,15.1 31.3,15.1 31.3,21.8 		"/>
	</g>
</g>
</svg>
