<?xml version="1.0" encoding="utf-8"?>
<!-- Generator: Adobe Illustrator 18.1.1, SVG Export Plug-In . SVG Version: 6.00 Build 0)  -->
<!DOCTYPE svg PUBLIC "-//W3C//DTD SVG 1.1//EN" "http://www.w3.org/Graphics/SVG/1.1/DTD/svg11.dtd">
<svg version="1.1" id="Layer_1" xmlns="http://www.w3.org/2000/svg" xmlns:xlink="http://www.w3.org/1999/xlink" x="0px" y="0px"
	 viewBox="0 0 60 60" enable-background="new 0 0 60 60" xml:space="preserve">
<g>
	<rect x="-67.1" y="49.6" fill="#DDB761" width="12.2" height="2.4"/>
	<rect x="-68.3" y="46.4" fill="#DDB761" width="14.6" height="2.4"/>
	<rect x="-68.3" y="46.4" fill="#DDB761" width="14.6" height="2.4"/>
	<rect x="-67.1" y="49.6" fill="#DDB761" width="12.2" height="2.4"/>
	<path fill="#DDB761" d="M-61.1,6.9C-69.9,6.9-77,14-77,22.8c0,4.9,2.3,9.5,6.1,12.5l3,10.4h13.4l3-10.4c3.8-3,6.1-7.6,6.1-12.5
		C-45.3,14-52.4,6.9-61.1,6.9z M-53.1,33.5l-0.3,0.2l-2.8,9.4H-66l-2.8-9.4l-0.3-0.2c-3.4-2.5-5.4-6.5-5.4-10.8
		c0-7.4,6-13.4,13.4-13.4s13.4,6,13.4,13.4C-47.7,27-49.8,31-53.1,33.5z"/>
	<g>
		<polygon fill="#FFFFFF" points="-53.5,21.8 -53.5,24.2 -59.8,24.2 -59.8,30.4 -62.3,30.4 -62.3,24.2 -68.8,24.2 -68.8,21.8 
			-62.3,21.8 -62.3,15.1 -59.8,15.1 -59.8,21.8 		"/>
	</g>
</g>
<g>
	<g>
		
			<rect x="41.5" y="35.2" transform="matrix(8.715580e-002 -0.9962 0.9962 8.715580e-002 -1.0152 78.4083)" fill="#DDB761" width="1.5" height="9"/>
		
			<rect x="41.3" y="38" transform="matrix(8.715580e-002 -0.9962 0.9962 8.715580e-002 -3.1698 80.0562)" fill="#DDB761" width="1.5" height="7.5"/>
		<path fill="#DDB761" d="M53.3,25.3c-0.3,3-1.9,5.7-4.4,7.4l-2.4,6.2l-8.3-0.7L37.8,36l0.4-1.3c0,0,0.1-0.1,0.1-0.1
			c0.2-0.2,0.4-0.4,0.7-0.6l0.5,2.6l6,0.5l2.2-5.6l0.2-0.1c2.2-1.4,3.7-3.8,3.9-6.4c0.4-4.5-3-8.6-7.5-9c-1.3-0.1-2.5,0.1-3.6,0.5
			c-0.1-0.2-0.3-0.4-0.5-0.6c-0.2-0.2-0.3-0.4-0.5-0.6c1.4-0.6,3-0.9,4.7-0.8C49.8,15.1,53.8,19.9,53.3,25.3z"/>
	</g>
	<g>
		
			<rect x="17.1" y="35.2" transform="matrix(-8.715577e-002 -0.9962 0.9962 -8.715577e-002 -20.2152 60.974)" fill="#DDB761" width="1.5" height="9"/>
		
			<rect x="17.2" y="38" transform="matrix(-8.715577e-002 -0.9962 0.9962 -8.715577e-002 -22.0209 63.3197)" fill="#DDB761" width="1.5" height="7.5"/>
		<path fill="#DDB761" d="M22.2,36l-0.4,2.1l-8.3,0.7l-2.4-6.2c-2.5-1.6-4.2-4.4-4.4-7.4c-0.5-5.4,3.5-10.1,8.9-10.6
			c1.7-0.2,3.3,0.1,4.7,0.8c-0.2,0.2-0.3,0.4-0.5,0.6c-0.2,0.2-0.3,0.4-0.5,0.6c-1.1-0.4-2.3-0.6-3.6-0.5c-4.6,0.4-7.9,4.4-7.5,9
			c0.2,2.6,1.7,5,3.9,6.4l0.2,0.1l2.2,5.6l6-0.5l0.5-2.6c0.2,0.2,0.4,0.4,0.7,0.6c0,0,0.1,0.1,0.1,0.1L22.2,36z"/>
	</g>
	<g>
		<rect x="24" y="44.1" fill="#FFFFFF" width="12.2" height="2"/>
		<rect x="25" y="46.8" fill="#FFFFFF" width="10.2" height="2"/>
		<path fill="#FFFFFF" d="M40.7,16.7c-0.1-0.2-0.3-0.4-0.5-0.6c-0.2-0.2-0.3-0.4-0.5-0.6c-2.4-2.6-5.9-4.3-9.7-4.3s-7.3,1.6-9.7,4.3
			c-0.2,0.2-0.3,0.4-0.5,0.6c-0.2,0.2-0.3,0.4-0.5,0.6c-1.6,2.2-2.5,4.9-2.5,7.7c0,3.7,1.6,7.2,4.3,9.7c0.2,0.2,0.4,0.4,0.7,0.6
			c0,0,0.1,0.1,0.1,0.1l0.4,1.3l2.2,7.4h11.2l2.2-7.4l0.4-1.3c0,0,0.1-0.1,0.1-0.1c0.2-0.2,0.4-0.4,0.7-0.6c2.7-2.5,4.3-6,4.3-9.7
			C43.2,21.5,42.3,18.8,40.7,16.7z M38.4,31.7c-0.2,0.2-0.4,0.5-0.6,0.7c-0.2,0.2-0.4,0.4-0.6,0.6c-0.2,0.1-0.3,0.3-0.5,0.4
			l-0.3,0.2l-2.3,7.8h-8.2l-2.3-7.8l-0.3-0.2c-0.2-0.1-0.3-0.3-0.5-0.4c-0.2-0.2-0.5-0.4-0.6-0.6c-0.2-0.2-0.5-0.5-0.6-0.7
			c-1.7-2-2.7-4.6-2.7-7.3c0-2.5,0.8-4.9,2.3-6.8c0.2-0.2,0.3-0.4,0.5-0.6c0.2-0.2,0.3-0.4,0.5-0.5c2-2,4.8-3.3,7.9-3.3
			s5.9,1.3,7.9,3.3c0.2,0.2,0.3,0.4,0.5,0.5c0.2,0.2,0.3,0.4,0.5,0.6c1.5,1.9,2.3,4.2,2.3,6.8C41.2,27.1,40.2,29.7,38.4,31.7z"/>
	</g>
</g>
</svg>
