<?xml version="1.0" encoding="utf-8"?>
<!-- Generator: Adobe Illustrator 18.1.1, SVG Export Plug-In . SVG Version: 6.00 Build 0)  -->
<!DOCTYPE svg PUBLIC "-//W3C//DTD SVG 1.1//EN" "http://www.w3.org/Graphics/SVG/1.1/DTD/svg11.dtd">
<svg version="1.1" id="Layer_1" xmlns="http://www.w3.org/2000/svg" xmlns:xlink="http://www.w3.org/1999/xlink" x="0px" y="0px"
	 viewBox="0 0 60 60" enable-background="new 0 0 60 60" xml:space="preserve">
<g>
	<rect x="-67.1" y="49.6" fill="#DDB761" width="12.2" height="2.4"/>
	<rect x="-68.3" y="46.4" fill="#DDB761" width="14.6" height="2.4"/>
	<rect x="-68.3" y="46.4" fill="#DDB761" width="14.6" height="2.4"/>
	<rect x="-67.1" y="49.6" fill="#DDB761" width="12.2" height="2.4"/>
	<path fill="#DDB761" d="M-61.1,6.9C-69.9,6.9-77,14-77,22.8c0,4.9,2.3,9.5,6.1,12.5l3,10.4h13.4l3-10.4c3.8-3,6.1-7.6,6.1-12.5
		C-45.3,14-52.4,6.9-61.1,6.9z M-53.1,33.5l-0.3,0.2l-2.8,9.4H-66l-2.8-9.4l-0.3-0.2c-3.4-2.5-5.4-6.5-5.4-10.8
		c0-7.4,6-13.4,13.4-13.4s13.4,6,13.4,13.4C-47.7,27-49.8,31-53.1,33.5z"/>
	<g>
		<polygon fill="#FFFFFF" points="-53.5,21.8 -53.5,24.2 -59.8,24.2 -59.8,30.4 -62.3,30.4 -62.3,24.2 -68.8,24.2 -68.8,21.8 
			-62.3,21.8 -62.3,15.1 -59.8,15.1 -59.8,21.8 		"/>
	</g>
</g>
<g>
	<g>
		
			<rect x="-49.6" y="96.6" transform="matrix(8.715580e-002 -0.9962 0.9962 8.715580e-002 -145.3266 43.644)" fill="#DDB761" width="1.5" height="9"/>
		
			<rect x="-49.8" y="99.4" transform="matrix(8.715580e-002 -0.9962 0.9962 8.715580e-002 -147.4811 45.2919)" fill="#DDB761" width="1.5" height="7.5"/>
		<path fill="#DDB761" d="M-37.8,86.7c-0.3,3-1.9,5.7-4.4,7.4l-2.4,6.2l-8.3-0.7l-0.4-2.1l0.4-1.3c0,0,0.1-0.1,0.1-0.1
			c0.2-0.2,0.4-0.4,0.7-0.6l0.5,2.6l6,0.5l2.2-5.6l0.2-0.1c2.2-1.4,3.7-3.8,3.9-6.4c0.4-4.5-3-8.6-7.5-9c-1.3-0.1-2.5,0.1-3.6,0.5
			c-0.1-0.2-0.3-0.4-0.5-0.6c-0.2-0.2-0.3-0.4-0.5-0.6c1.4-0.6,3-0.9,4.7-0.8C-41.3,76.5-37.3,81.3-37.8,86.7z"/>
	</g>
	<g>
		
			<rect x="-74" y="96.6" transform="matrix(-8.715577e-002 -0.9962 0.9962 -8.715577e-002 -180.4108 36.9058)" fill="#DDB761" width="1.5" height="9"/>
		
			<rect x="-73.9" y="99.3" transform="matrix(-8.715577e-002 -0.9962 0.9962 -8.715577e-002 -182.2164 39.2515)" fill="#DDB761" width="1.5" height="7.5"/>
		<path fill="#DDB761" d="M-68.9,97.4l-0.4,2.1l-8.3,0.7L-80,94c-2.5-1.6-4.2-4.4-4.4-7.4c-0.5-5.4,3.5-10.1,8.9-10.6
			c1.7-0.2,3.3,0.1,4.7,0.8c-0.2,0.2-0.3,0.4-0.5,0.6c-0.2,0.2-0.3,0.4-0.5,0.6c-1.1-0.4-2.3-0.6-3.6-0.5c-4.6,0.4-7.9,4.4-7.5,9
			c0.2,2.6,1.7,5,3.9,6.4l0.2,0.1l2.2,5.6l6-0.5l0.5-2.6c0.2,0.2,0.4,0.4,0.7,0.6c0,0,0.1,0.1,0.1,0.1L-68.9,97.4z"/>
	</g>
	<g>
		<rect x="-67.1" y="105.5" fill="#FFFFFF" width="12.2" height="2"/>
		<rect x="-66.1" y="108.2" fill="#FFFFFF" width="10.2" height="2"/>
		<path fill="#FFFFFF" d="M-50.4,78c-0.1-0.2-0.3-0.4-0.5-0.6c-0.2-0.2-0.3-0.4-0.5-0.6c-2.4-2.6-5.9-4.3-9.7-4.3s-7.3,1.6-9.7,4.3
			c-0.2,0.2-0.3,0.4-0.5,0.6c-0.2,0.2-0.3,0.4-0.5,0.6c-1.6,2.2-2.5,4.9-2.5,7.7c0,3.7,1.6,7.2,4.3,9.7c0.2,0.2,0.4,0.4,0.7,0.6
			c0,0,0.1,0.1,0.1,0.1l0.4,1.3l2.2,7.4h11.2l2.2-7.4l0.4-1.3c0,0,0.1-0.1,0.1-0.1c0.2-0.2,0.4-0.4,0.7-0.6c2.7-2.5,4.3-6,4.3-9.7
			C-47.9,82.9-48.9,80.2-50.4,78z M-52.7,93c-0.2,0.2-0.4,0.5-0.6,0.7c-0.2,0.2-0.4,0.4-0.6,0.6c-0.2,0.1-0.3,0.3-0.5,0.4l-0.3,0.2
			l-2.3,7.8h-8.2l-2.3-7.8l-0.3-0.2c-0.2-0.1-0.3-0.3-0.5-0.4c-0.2-0.2-0.5-0.4-0.6-0.6c-0.2-0.2-0.5-0.5-0.6-0.7
			c-1.7-2-2.7-4.6-2.7-7.3c0-2.5,0.8-4.9,2.3-6.8c0.2-0.2,0.3-0.4,0.5-0.6c0.2-0.2,0.3-0.4,0.5-0.5c2-2,4.8-3.3,7.9-3.3
			s5.9,1.3,7.9,3.3c0.2,0.2,0.3,0.4,0.5,0.5c0.2,0.2,0.3,0.4,0.5,0.6c1.5,1.9,2.3,4.2,2.3,6.8C-49.9,88.4-50.9,91-52.7,93z"/>
	</g>
</g>
<g>
	<g>
		<rect x="-64.5" y="143.8" fill="#FFFFFF" width="6.8" height="1.1"/>
		<rect x="-64" y="145.3" fill="#FFFFFF" width="5.7" height="1.1"/>
		<path fill="#FFFFFF" d="M-61.2,125.4c-4.1,0-7.4,3.3-7.4,7.4c0,2.3,1.1,4.4,2.8,5.8l1.4,4.9h6.3l1.4-4.9c1.8-1.4,2.8-3.6,2.8-5.8
			C-53.8,128.7-57.1,125.4-61.2,125.4z M-57.6,137.9l-1.3,4.4h-4.6l-1.3-4.4l-0.2-0.1c-1.6-1.2-2.5-3.1-2.5-5c0-3.5,2.8-6.3,6.3-6.3
			s6.3,2.8,6.3,6.3c0,2-0.9,3.9-2.5,5L-57.6,137.9z"/>
	</g>
	<path fill="#DDB761" d="M-68.8,166.8c1.3,0.9,4.1,2.7,7.7,2.7c3.7,0,6.4-1.8,7.7-2.7c0.8,0.1,1.5,0.6,2.2,2.1c0.6,1.5,1,3.7,1,6.1
		c0,1-0.3,2.1-2.3,2.1h-17.3c-2,0-2.3-1.1-2.3-2.1c0-2.5,0.4-4.7,1-6.1C-70.4,167.4-69.6,166.9-68.8,166.8 M-54.1,163.7
		c-0.6,0-3.2,2.7-7.1,2.7c-3.9,0-6.5-2.7-7.1-2.7c-5.8,0-6.8,6.9-6.8,11.3c0,3.2,2.1,5.1,5.3,5.1h17.3c3.1,0,5.3-1.9,5.3-5.1
		C-47.2,170.6-48.3,163.7-54.1,163.7L-54.1,163.7z"/>
	<g>
		<circle fill="#DDB761" cx="-61.1" cy="157.4" r="7.6"/>
	</g>
</g>
<g>
	<path fill="#FFFFFF" d="M45.9,39.7c0,1.6-1.3,2.8-2.8,2.8H16.9c-1.6,0-2.8-1.3-2.8-2.8V20.3c0-1.6,1.3-2.8,2.8-2.8h26.2
		c1.6,0,2.8,1.3,2.8,2.8V39.7z M43.1,19.8H16.9c-0.3,0-0.6,0.3-0.6,0.6c0,2,1,3.8,2.6,5.1c2.4,1.9,4.8,3.8,7.1,5.6
		c0.9,0.8,2.7,2.4,3.9,2.4h0h0c1.2,0,3-1.6,3.9-2.4c2.4-1.9,4.8-3.8,7.1-5.6c1.2-0.9,2.6-2.9,2.6-4.4C43.7,20.5,43.8,19.8,43.1,19.8
		z M43.7,26c-0.4,0.4-0.8,0.8-1.2,1.2c-2.5,2-5.1,4-7.6,6c-1.3,1.1-3,2.5-4.8,2.5h0h0c-1.8,0-3.5-1.4-4.8-2.5c-2.5-2.1-5-4.1-7.6-6
		c-0.4-0.4-0.9-0.7-1.2-1.2v13.7c0,0.3,0.3,0.6,0.6,0.6h26.2c0.3,0,0.6-0.3,0.6-0.6V26z"/>
</g>
</svg>
